<svg width="24" height="25" viewBox="0 0 24 25" fill="none" xmlns="http://www.w3.org/2000/svg">
<path fill-rule="evenodd" clip-rule="evenodd" d="M0 12.6001C0 5.97268 5.37258 0.600098 12 0.600098C18.6274 0.600098 24 5.97268 24 12.6001C24 19.2275 18.6274 24.6001 12 24.6001C5.37258 24.6001 0 19.2275 0 12.6001ZM8.48027 10.539H5.76081V18.7099H8.48027V10.539ZM8.65938 8.01145C8.64173 7.2103 8.06883 6.6001 7.13852 6.6001C6.20821 6.6001 5.6 7.2103 5.6 8.01145C5.6 8.796 6.19023 9.42377 7.10322 9.42377H7.1206C8.06883 9.42377 8.65938 8.796 8.65938 8.01145ZM18.2877 14.025C18.2877 11.5152 16.9461 10.3472 15.1566 10.3472C13.7127 10.3472 13.0663 11.1402 12.7053 11.6966V10.5392H9.98555C10.0214 11.306 9.98555 18.7101 9.98555 18.7101H12.7053V14.1468C12.7053 13.9026 12.723 13.659 12.7949 13.4842C12.9914 12.9963 13.4389 12.4912 14.1903 12.4912C15.1747 12.4912 15.5682 13.2405 15.5682 14.3385V18.7099H18.2876L18.2877 14.025Z" fill="black"/>
</svg>
