<svg xmlns="http://www.w3.org/2000/svg">
  <symbol id="footerLogo" viewBox="0 0 200 36">
    <path d="M48.132 30.5C47.712 30.5 47.362 30.36 47.082 30.08C46.8253 29.8 46.697 29.4617 46.697 29.065V7.4C46.697 7.00333 46.8253 6.67667 47.082 6.42C47.362 6.14 47.7003 6 48.097 6H60.382C60.7787 6 61.117 6.12833 61.397 6.385C61.677 6.64167 61.817 6.96833 61.817 7.365C61.817 7.73833 61.677 8.05333 61.397 8.31C61.117 8.56667 60.7787 8.695 60.382 8.695H49.357L49.567 8.415V16.99L49.392 16.605H58.807C59.2037 16.605 59.542 16.745 59.822 17.025C60.102 17.2817 60.242 17.6083 60.242 18.005C60.242 18.355 60.102 18.67 59.822 18.95C59.542 19.2067 59.2037 19.335 58.807 19.335H49.322L49.567 19.02V29.065C49.567 29.4617 49.427 29.8 49.147 30.08C48.867 30.36 48.5287 30.5 48.132 30.5ZM67.0894 30.5C66.6928 30.5 66.3544 30.36 66.0744 30.08C65.8178 29.8 65.6894 29.4617 65.6894 29.065V13.805C65.6894 13.4083 65.8178 13.0817 66.0744 12.825C66.3544 12.545 66.6928 12.405 67.0894 12.405C67.5094 12.405 67.8478 12.545 68.1044 12.825C68.3611 13.0817 68.4894 13.4083 68.4894 13.805V18.425L68.0694 17.69C68.2094 16.9667 68.4544 16.2667 68.8044 15.59C69.1778 14.89 69.6444 14.2717 70.2044 13.735C70.7644 13.175 71.4061 12.7433 72.1294 12.44C72.8528 12.1133 73.6461 11.95 74.5094 11.95C75.0228 11.95 75.4894 12.0783 75.9094 12.335C76.3528 12.5683 76.5744 12.9067 76.5744 13.35C76.5744 13.84 76.4461 14.2017 76.1894 14.435C75.9328 14.6683 75.6411 14.785 75.3144 14.785C75.0111 14.785 74.7194 14.7267 74.4394 14.61C74.1594 14.47 73.8094 14.4 73.3894 14.4C72.8061 14.4 72.2228 14.5633 71.6394 14.89C71.0794 15.1933 70.5544 15.6367 70.0644 16.22C69.5978 16.8033 69.2128 17.4683 68.9094 18.215C68.6294 18.9383 68.4894 19.72 68.4894 20.56V29.065C68.4894 29.4617 68.3494 29.8 68.0694 30.08C67.8128 30.36 67.4861 30.5 67.0894 30.5ZM87.3161 30.85C85.4495 30.85 83.8161 30.4533 82.4161 29.66C81.0161 28.8667 79.9195 27.7817 79.1261 26.405C78.3561 25.005 77.9711 23.395 77.9711 21.575C77.9711 19.545 78.3678 17.8183 79.1611 16.395C79.9778 14.9483 81.0278 13.8517 82.3111 13.105C83.6178 12.335 84.9945 11.95 86.4411 11.95C87.5145 11.95 88.5528 12.1483 89.5561 12.545C90.5595 12.9417 91.4461 13.525 92.2161 14.295C92.9861 15.0417 93.6045 15.9517 94.0711 17.025C94.5378 18.075 94.7828 19.2533 94.8061 20.56C94.8061 20.9333 94.6661 21.2483 94.3861 21.505C94.1061 21.7617 93.7795 21.89 93.4061 21.89H79.5811L78.9511 19.475H92.4261L91.8661 19.965V19.195C91.7728 18.2383 91.4461 17.4217 90.8861 16.745C90.3495 16.045 89.6845 15.5083 88.8911 15.135C88.1211 14.7617 87.3045 14.575 86.4411 14.575C85.7411 14.575 85.0411 14.7033 84.3411 14.96C83.6645 15.1933 83.0461 15.59 82.4861 16.15C81.9495 16.6867 81.5061 17.3867 81.1561 18.25C80.8295 19.1133 80.6661 20.1517 80.6661 21.365C80.6661 22.7183 80.9345 23.9083 81.4711 24.935C82.0311 25.9617 82.8011 26.7783 83.7811 27.385C84.7611 27.9683 85.9045 28.26 87.2111 28.26C88.0278 28.26 88.7395 28.155 89.3461 27.945C89.9528 27.735 90.4778 27.4783 90.9211 27.175C91.3645 26.8483 91.7378 26.5217 92.0411 26.195C92.3445 25.985 92.6361 25.88 92.9161 25.88C93.2661 25.88 93.5461 25.9967 93.7561 26.23C93.9895 26.4633 94.1061 26.7433 94.1061 27.07C94.1061 27.4667 93.9195 27.8167 93.5461 28.12C92.8928 28.8433 92.0061 29.485 90.8861 30.045C89.7661 30.5817 88.5761 30.85 87.3161 30.85ZM107.38 30.85C105.513 30.85 103.88 30.4533 102.48 29.66C101.08 28.8667 99.983 27.7817 99.1896 26.405C98.4196 25.005 98.0346 23.395 98.0346 21.575C98.0346 19.545 98.4313 17.8183 99.2246 16.395C100.041 14.9483 101.091 13.8517 102.375 13.105C103.681 12.335 105.058 11.95 106.505 11.95C107.578 11.95 108.616 12.1483 109.62 12.545C110.623 12.9417 111.51 13.525 112.28 14.295C113.05 15.0417 113.668 15.9517 114.135 17.025C114.601 18.075 114.846 19.2533 114.87 20.56C114.87 20.9333 114.73 21.2483 114.45 21.505C114.17 21.7617 113.843 21.89 113.47 21.89H99.6446L99.0146 19.475H112.49L111.93 19.965V19.195C111.836 18.2383 111.51 17.4217 110.95 16.745C110.413 16.045 109.748 15.5083 108.955 15.135C108.185 14.7617 107.368 14.575 106.505 14.575C105.805 14.575 105.105 14.7033 104.405 14.96C103.728 15.1933 103.11 15.59 102.55 16.15C102.013 16.6867 101.57 17.3867 101.22 18.25C100.893 19.1133 100.73 20.1517 100.73 21.365C100.73 22.7183 100.998 23.9083 101.535 24.935C102.095 25.9617 102.865 26.7783 103.845 27.385C104.825 27.9683 105.968 28.26 107.275 28.26C108.091 28.26 108.803 28.155 109.41 27.945C110.016 27.735 110.541 27.4783 110.985 27.175C111.428 26.8483 111.801 26.5217 112.105 26.195C112.408 25.985 112.7 25.88 112.98 25.88C113.33 25.88 113.61 25.9967 113.82 26.23C114.053 26.4633 114.17 26.7433 114.17 27.07C114.17 27.4667 113.983 27.8167 113.61 28.12C112.956 28.8433 112.07 29.485 110.95 30.045C109.83 30.5817 108.64 30.85 107.38 30.85ZM127.828 12.125C129.368 12.125 130.581 12.4633 131.468 13.14C132.378 13.7933 133.02 14.68 133.393 15.8C133.79 16.8967 133.988 18.1217 133.988 19.475V29.065C133.988 29.4617 133.848 29.8 133.568 30.08C133.311 30.36 132.985 30.5 132.588 30.5C132.191 30.5 131.853 30.36 131.573 30.08C131.316 29.8 131.188 29.4617 131.188 29.065V19.475C131.188 18.5883 131.06 17.795 130.803 17.095C130.546 16.3717 130.115 15.8 129.508 15.38C128.925 14.9367 128.12 14.715 127.093 14.715C126.136 14.715 125.261 14.9367 124.468 15.38C123.675 15.8 123.045 16.3717 122.578 17.095C122.111 17.795 121.878 18.5883 121.878 19.475V29.065C121.878 29.4617 121.738 29.8 121.458 30.08C121.201 30.36 120.875 30.5 120.478 30.5C120.081 30.5 119.743 30.36 119.463 30.08C119.206 29.8 119.078 29.4617 119.078 29.065V6C119.078 5.60333 119.206 5.27667 119.463 5.02C119.743 4.74 120.081 4.6 120.478 4.6C120.898 4.6 121.236 4.74 121.493 5.02C121.75 5.27667 121.878 5.60333 121.878 6V16.465L121.178 17.235C121.295 16.6283 121.551 16.0217 121.948 15.415C122.345 14.785 122.846 14.225 123.453 13.735C124.06 13.245 124.736 12.86 125.483 12.58C126.23 12.2767 127.011 12.125 127.828 12.125ZM154.086 12.23C154.482 12.23 154.809 12.37 155.066 12.65C155.346 12.9067 155.486 13.2333 155.486 13.63V29.065C155.486 29.4617 155.346 29.8 155.066 30.08C154.809 30.36 154.482 30.5 154.086 30.5C153.666 30.5 153.327 30.36 153.071 30.08C152.814 29.8 152.686 29.4617 152.686 29.065V25.74L153.351 25.67C153.351 26.1833 153.176 26.7433 152.826 27.35C152.476 27.9567 151.997 28.5283 151.391 29.065C150.784 29.5783 150.061 30.01 149.221 30.36C148.404 30.6867 147.517 30.85 146.561 30.85C144.974 30.85 143.551 30.4417 142.291 29.625C141.031 28.785 140.027 27.6533 139.281 26.23C138.557 24.8067 138.196 23.185 138.196 21.365C138.196 19.5217 138.557 17.9 139.281 16.5C140.027 15.0767 141.031 13.9683 142.291 13.175C143.551 12.3583 144.951 11.95 146.491 11.95C147.494 11.95 148.427 12.1133 149.291 12.44C150.154 12.7667 150.901 13.21 151.531 13.77C152.184 14.33 152.686 14.9483 153.036 15.625C153.409 16.3017 153.596 16.9783 153.596 17.655L152.686 17.445V13.63C152.686 13.2333 152.814 12.9067 153.071 12.65C153.327 12.37 153.666 12.23 154.086 12.23ZM146.876 28.26C148.042 28.26 149.069 27.9567 149.956 27.35C150.866 26.7433 151.566 25.9267 152.056 24.9C152.569 23.85 152.826 22.6717 152.826 21.365C152.826 20.0817 152.569 18.9267 152.056 17.9C151.566 16.85 150.866 16.0333 149.956 15.45C149.069 14.8433 148.042 14.54 146.876 14.54C145.732 14.54 144.706 14.8317 143.796 15.415C142.909 15.9983 142.209 16.8033 141.696 17.83C141.182 18.8567 140.926 20.035 140.926 21.365C140.926 22.6717 141.171 23.85 141.661 24.9C142.174 25.9267 142.874 26.7433 143.761 27.35C144.671 27.9567 145.709 28.26 146.876 28.26ZM169.67 11.95C171.256 11.95 172.505 12.2767 173.415 12.93C174.325 13.5833 174.966 14.4583 175.34 15.555C175.736 16.6517 175.935 17.8767 175.935 19.23V29.065C175.935 29.4617 175.795 29.8 175.515 30.08C175.258 30.36 174.931 30.5 174.535 30.5C174.138 30.5 173.8 30.36 173.52 30.08C173.263 29.8 173.135 29.4617 173.135 29.065V19.3C173.135 18.4133 172.995 17.62 172.715 16.92C172.458 16.1967 172.015 15.625 171.385 15.205C170.778 14.7617 169.938 14.54 168.865 14.54C167.885 14.54 166.986 14.7617 166.17 15.205C165.353 15.625 164.7 16.1967 164.21 16.92C163.72 17.62 163.475 18.4133 163.475 19.3V29.065C163.475 29.4617 163.335 29.8 163.055 30.08C162.798 30.36 162.471 30.5 162.075 30.5C161.678 30.5 161.34 30.36 161.06 30.08C160.803 29.8 160.675 29.4617 160.675 29.065V13.805C160.675 13.4083 160.803 13.0817 161.06 12.825C161.34 12.545 161.678 12.405 162.075 12.405C162.495 12.405 162.833 12.545 163.09 12.825C163.346 13.0817 163.475 13.4083 163.475 13.805V16.29L162.775 17.06C162.891 16.4533 163.16 15.8467 163.58 15.24C164 14.61 164.525 14.05 165.155 13.56C165.785 13.07 166.485 12.685 167.255 12.405C168.025 12.1017 168.83 11.95 169.67 11.95ZM196.024 4.6C196.421 4.6 196.748 4.74 197.004 5.02C197.284 5.27667 197.424 5.60333 197.424 6V29.065C197.424 29.4617 197.284 29.8 197.004 30.08C196.748 30.36 196.421 30.5 196.024 30.5C195.604 30.5 195.266 30.36 195.009 30.08C194.753 29.8 194.624 29.4617 194.624 29.065V25.74L195.289 25.495C195.289 26.055 195.114 26.65 194.764 27.28C194.414 27.8867 193.936 28.4583 193.329 28.995C192.723 29.5317 191.999 29.975 191.159 30.325C190.343 30.675 189.456 30.85 188.499 30.85C186.936 30.85 185.513 30.4417 184.229 29.625C182.969 28.8083 181.966 27.6883 181.219 26.265C180.496 24.8417 180.134 23.22 180.134 21.4C180.134 19.5567 180.496 17.9233 181.219 16.5C181.966 15.0767 182.969 13.9683 184.229 13.175C185.489 12.3583 186.889 11.95 188.429 11.95C189.409 11.95 190.331 12.1133 191.194 12.44C192.058 12.7667 192.804 13.21 193.434 13.77C194.088 14.33 194.601 14.9483 194.974 15.625C195.348 16.3017 195.534 16.9783 195.534 17.655L194.624 17.445V6C194.624 5.60333 194.753 5.27667 195.009 5.02C195.266 4.74 195.604 4.6 196.024 4.6ZM188.814 28.26C189.981 28.26 191.008 27.9683 191.894 27.385C192.804 26.7783 193.504 25.9617 193.994 24.935C194.508 23.885 194.764 22.7067 194.764 21.4C194.764 20.07 194.508 18.8917 193.994 17.865C193.504 16.8383 192.804 16.0333 191.894 15.45C191.008 14.8433 189.981 14.54 188.814 14.54C187.671 14.54 186.644 14.8433 185.734 15.45C184.848 16.0333 184.148 16.8383 183.634 17.865C183.121 18.8917 182.864 20.07 182.864 21.4C182.864 22.6833 183.121 23.85 183.634 24.9C184.148 25.9267 184.848 26.7433 185.734 27.35C186.644 27.9567 187.671 28.26 188.814 28.26Z" fill="white"/>
    <path d="M24.1011 17.5C24.1011 17.0945 24.3801 16.7398 24.7776 16.6478C27.7445 15.9559 29.8158 13.3427 29.8158 10.2871C29.8158 6.68162 26.89 3.75 23.2975 3.75C20.2318 3.75 17.5474 5.93318 16.9193 8.93882C16.8349 9.34341 16.4783 9.63464 16.0639 9.63464C15.6495 9.63464 15.2929 9.34334 15.2085 8.93868L24.1011 17.5ZM24.1011 17.5C24.1011 17.9052 24.3798 18.2598 24.7769 18.3521L24.1011 17.5ZM7.35008 18.3522C7.74759 18.2602 8.0266 17.9055 8.0266 17.5C8.0266 17.0948 7.74793 16.7402 7.35082 16.6479L7.35008 18.3522ZM7.35008 18.3522C4.38316 19.0441 2.31186 21.6573 2.31186 24.7129C2.31186 28.3184 5.23764 31.25 8.83015 31.25C11.8957 31.25 14.5801 29.067 15.2085 26.0615L7.35008 18.3522ZM16.0639 25.3654C16.4783 25.3654 16.8349 25.6566 16.9193 26.0612L16.0639 25.3654ZM16.0639 25.3654C15.6495 25.3654 15.293 25.6566 15.2085 26.0611L16.0639 25.3654ZM2.31186 10.2871C2.31186 13.3427 4.38316 15.9559 7.35008 16.6478L2.31186 10.2871ZM2.31186 10.2871C2.31186 6.68162 5.23764 3.75 8.83015 3.75M2.31186 10.2871L8.83015 3.75M8.83015 3.75C11.8957 3.75 14.5801 5.93301 15.2085 8.93851L8.83015 3.75ZM4.75833 17.5C2.20788 18.9359 0.563843 21.6523 0.563843 24.7129C0.563843 29.2816 4.27048 33 8.83015 33C11.8854 33 14.636 31.2954 16.0639 28.7195C17.4916 31.2954 20.2421 33 23.2975 33C27.8572 33 31.5638 29.2816 31.5638 24.7129C31.5638 21.6523 29.9198 18.9359 27.3694 17.5C29.9198 16.0641 31.5638 13.3477 31.5638 10.2871C31.5638 5.7184 27.8572 2 23.2975 2C20.2421 2 17.4916 3.70458 16.0639 6.2805C14.636 3.70458 11.8854 2 8.83015 2C4.27048 2 0.563843 5.7184 0.563843 10.2871C0.563843 13.3477 2.20788 16.0641 4.75833 17.5ZM24.7776 18.3522C27.7445 19.0441 29.8158 21.6573 29.8158 24.7129C29.8158 28.3184 26.89 31.25 23.2975 31.25C20.2319 31.25 17.5475 29.0669 16.9194 26.0613L24.7776 18.3522Z" fill="#3DB370" stroke="#3DB370"/>
  </symbol>

  <symbol id="instagram" viewBox="0 0 38 38">
    <rect width="38" height="38" rx="5" fill="#EFEEF3"/>
    <path d="M19.0078 13.8739C16.1685 13.8739 13.8783 16.1641 13.8783 19.0033C13.8783 21.8426 16.1685 24.1328 19.0078 24.1328C21.8471 24.1328 24.1373 21.8426 24.1373 19.0033C24.1373 16.1641 21.8471 13.8739 19.0078 13.8739ZM19.0078 22.3382C17.173 22.3382 15.673 20.8426 15.673 19.0033C15.673 17.1641 17.1685 15.6685 19.0078 15.6685C20.8471 15.6685 22.3426 17.1641 22.3426 19.0033C22.3426 20.8426 20.8426 22.3382 19.0078 22.3382ZM25.5435 13.6641C25.5435 14.3292 25.0078 14.8605 24.3471 14.8605C23.6819 14.8605 23.1506 14.3248 23.1506 13.6641C23.1506 13.0033 23.6864 12.4676 24.3471 12.4676C25.0078 12.4676 25.5435 13.0033 25.5435 13.6641ZM28.9408 14.8783C28.8649 13.2757 28.4989 11.856 27.3247 10.6864C26.1551 9.51674 24.7355 9.15067 23.1328 9.07031C21.481 8.97656 16.5301 8.97656 14.8783 9.07031C13.2801 9.14621 11.8605 9.51228 10.6864 10.6819C9.51228 11.8516 9.15067 13.2712 9.07031 14.8739C8.97656 16.5257 8.97656 21.4766 9.07031 23.1283C9.14621 24.731 9.51228 26.1507 10.6864 27.3203C11.8605 28.49 13.2757 28.856 14.8783 28.9364C16.5301 29.0301 21.481 29.0301 23.1328 28.9364C24.7355 28.8605 26.1551 28.4944 27.3247 27.3203C28.4944 26.1507 28.8605 24.731 28.9408 23.1283C29.0346 21.4766 29.0346 16.5301 28.9408 14.8783ZM26.8069 24.9007C26.4587 25.7757 25.7846 26.4498 24.9051 26.8025C23.5881 27.3248 20.4632 27.2042 19.0078 27.2042C17.5524 27.2042 14.423 27.3203 13.1105 26.8025C12.2355 26.4542 11.5614 25.7801 11.2087 24.9007C10.6864 23.5837 10.8069 20.4587 10.8069 19.0033C10.8069 17.548 10.6908 14.4185 11.2087 13.106C11.5569 12.231 12.231 11.5569 13.1105 11.2042C14.4274 10.6819 17.5524 10.8025 19.0078 10.8025C20.4632 10.8025 23.5926 10.6864 24.9051 11.2042C25.7801 11.5525 26.4542 12.2266 26.8069 13.106C27.3292 14.423 27.2087 17.548 27.2087 19.0033C27.2087 20.4587 27.3292 23.5882 26.8069 24.9007Z"/>
  </symbol>

  <symbol id="facebook" viewBox="0 0 38 38">
    <rect width="38" height="38" rx="5" fill="#EFEEF3"/>
    <path d="M23.3447 20.5025L23.8632 17.1235H20.621V14.9307C20.621 14.0063 21.0739 13.1052 22.526 13.1052H24V10.2283C24 10.2283 22.6624 10 21.3835 10C18.7134 10 16.9681 11.6184 16.9681 14.5482V17.1235H14V20.5025H16.9681V28.6711H20.621V20.5025H23.3447Z"/>
  </symbol>

  <symbol id="github" viewBox="0 0 38 38">
    <rect width="38" height="38" rx="5" fill="#EFEEF3"/>
    <path d="M15.6895 24.7016C15.6895 24.7823 15.5968 24.8468 15.4798 24.8468C15.3468 24.8589 15.254 24.7944 15.254 24.7016C15.254 24.621 15.3468 24.5565 15.4637 24.5565C15.5847 24.5444 15.6895 24.6089 15.6895 24.7016ZM14.4355 24.5202C14.4073 24.6008 14.4879 24.6935 14.6089 24.7177C14.7137 24.7581 14.8347 24.7177 14.8589 24.6371C14.8831 24.5565 14.8065 24.4637 14.6855 24.4274C14.5806 24.3992 14.4637 24.4395 14.4355 24.5202ZM16.2177 24.4516C16.1008 24.4798 16.0202 24.5565 16.0323 24.6492C16.0444 24.7298 16.1492 24.7823 16.2702 24.754C16.3871 24.7258 16.4677 24.6492 16.4556 24.5685C16.4435 24.4919 16.3347 24.4395 16.2177 24.4516ZM18.871 9C13.2782 9 9 13.246 9 18.8387C9 23.3105 11.8145 27.1371 15.8347 28.4839C16.3508 28.5766 16.5323 28.2581 16.5323 27.996C16.5323 27.746 16.5202 26.3669 16.5202 25.5202C16.5202 25.5202 13.6976 26.125 13.1048 24.3185C13.1048 24.3185 12.6452 23.1452 11.9839 22.8427C11.9839 22.8427 11.0605 22.2097 12.0484 22.2218C12.0484 22.2218 13.0524 22.3024 13.6048 23.2621C14.4879 24.8185 15.9677 24.371 16.5444 24.1048C16.6371 23.4597 16.8992 23.0121 17.1895 22.746C14.9355 22.496 12.6613 22.1694 12.6613 18.2903C12.6613 17.1815 12.9677 16.625 13.6129 15.9153C13.5081 15.6532 13.1653 14.5726 13.7177 13.1774C14.5605 12.9153 16.5 14.2661 16.5 14.2661C17.3065 14.0403 18.1734 13.9234 19.0323 13.9234C19.8911 13.9234 20.7581 14.0403 21.5645 14.2661C21.5645 14.2661 23.504 12.9113 24.3468 13.1774C24.8992 14.5766 24.5565 15.6532 24.4516 15.9153C25.0968 16.629 25.4919 17.1855 25.4919 18.2903C25.4919 22.1815 23.1169 22.4919 20.8629 22.746C21.2339 23.0645 21.5484 23.6694 21.5484 24.6169C21.5484 25.9758 21.5363 27.6573 21.5363 27.9879C21.5363 28.25 21.7218 28.5685 22.2339 28.4758C26.2661 27.1371 29 23.3105 29 18.8387C29 13.246 24.4637 9 18.871 9ZM12.9194 22.9073C12.8669 22.9476 12.879 23.0403 12.9476 23.1169C13.0121 23.1815 13.1048 23.2097 13.1573 23.1573C13.2097 23.1169 13.1976 23.0242 13.129 22.9476C13.0645 22.8831 12.9718 22.8548 12.9194 22.9073ZM12.4839 22.5806C12.4556 22.6331 12.496 22.6976 12.5766 22.7379C12.6411 22.7782 12.7218 22.7661 12.75 22.7097C12.7782 22.6573 12.7379 22.5927 12.6573 22.5524C12.5766 22.5282 12.5121 22.5403 12.4839 22.5806ZM13.7903 24.0161C13.7258 24.0685 13.75 24.1895 13.8427 24.2661C13.9355 24.3589 14.0524 24.371 14.1048 24.3065C14.1573 24.254 14.1331 24.1331 14.0524 24.0565C13.9637 23.9637 13.8427 23.9516 13.7903 24.0161ZM13.3306 23.4234C13.2661 23.4637 13.2661 23.5685 13.3306 23.6613C13.3952 23.754 13.504 23.7944 13.5565 23.754C13.621 23.7016 13.621 23.5968 13.5565 23.504C13.5 23.4113 13.3952 23.371 13.3306 23.4234Z"/>
  </symbol>

  <symbol id="dribbble" viewBox="0 0 38 38">
    <rect width="38" height="38" rx="5" fill="#EFEEF3"/>
    <path d="M18.6875 9C13.3458 9 9 13.3458 9 18.6875C9 24.0292 13.3458 28.375 18.6875 28.375C24.0292 28.375 28.375 24.0292 28.375 18.6875C28.375 13.3458 24.0292 9 18.6875 9ZM25.0926 13.4674C26.245 14.8755 26.9429 16.6689 26.9611 18.6219C26.6883 18.5642 23.9526 18.0093 21.1993 18.3556C20.9746 17.8071 20.7626 17.3246 20.4721 16.73C23.5315 15.4809 24.9181 13.7034 25.0926 13.4674ZM24.1727 12.5105C24.0239 12.7225 22.7783 14.3967 19.8359 15.4996C18.48 13.0083 16.9771 10.9618 16.7484 10.6555C19.3725 10.023 22.1377 10.7051 24.1727 12.5105ZM15.1696 11.2117C15.3877 11.5109 16.8664 13.56 18.2374 15.9972C14.3668 17.0251 10.9577 17.0103 10.5877 17.0054C11.1242 14.4377 12.8546 12.3036 15.1696 11.2117ZM10.4129 18.7001C10.4129 18.6155 10.4146 18.5313 10.4171 18.4473C10.7791 18.4547 14.789 18.5064 18.9213 17.2697C19.1581 17.7333 19.3844 18.2039 19.5921 18.6739C16.6 19.5167 13.8814 21.9367 12.5401 24.2328C11.2185 22.7658 10.4129 20.8254 10.4129 18.7001ZM13.6085 25.228C14.4728 23.4611 16.8186 21.1802 20.1545 20.0422C21.3162 23.0611 21.7967 25.5911 21.9197 26.3171C19.2591 27.4504 16.0598 27.1395 13.6085 25.228ZM23.3108 25.5596C23.226 25.0562 22.7856 22.6339 21.7033 19.6598C24.2963 19.2448 26.5744 19.9242 26.8575 20.0136C26.4887 22.3159 25.1671 24.3043 23.3108 25.5596Z"/>
  </symbol>

  <symbol id="twitter" viewBox="0 0 38 38">
    <rect width="38" height="38" rx="5" fill="#EFEEF3"/>
    <path d="M26.9441 15.0482C26.9568 15.2259 26.9568 15.4036 26.9568 15.5812C26.9568 21 22.8325 27.2436 15.2944 27.2436C12.9721 27.2436 10.8147 26.571 9 25.4036C9.32996 25.4416 9.64719 25.4543 9.98984 25.4543C11.9061 25.4543 13.67 24.8071 15.0787 23.703C13.2766 23.665 11.7665 22.4848 11.2462 20.8604C11.5 20.8984 11.7538 20.9238 12.0203 20.9238C12.3883 20.9238 12.7564 20.873 13.099 20.7843C11.2208 20.4035 9.81215 18.7538 9.81215 16.7614V16.7107C10.3578 17.0152 10.9924 17.2056 11.6649 17.2309C10.5609 16.4949 9.83754 15.2386 9.83754 13.8172C9.83754 13.0558 10.0405 12.3579 10.3959 11.7487C12.4137 14.236 15.4467 15.8604 18.8477 16.038C18.7842 15.7335 18.7461 15.4163 18.7461 15.099C18.7461 12.8401 20.5736 11 22.8451 11C24.0253 11 25.0913 11.4949 25.84 12.2944C26.7664 12.1168 27.6547 11.7741 28.4416 11.3046C28.137 12.2564 27.4898 13.0559 26.6395 13.5634C27.4644 13.4746 28.2639 13.2462 28.9999 12.9289C28.4416 13.7411 27.7436 14.4644 26.9441 15.0482Z"/>
  </symbol>
</svg>
