<?xml version="1.0" encoding="utf-8"?>
<!-- Generator: Adobe Illustrator 23.0.3, SVG Export Plug-In . SVG Version: 6.00 Build 0)  -->
<svg version="1.1" xmlns="http://www.w3.org/2000/svg" xmlns:xlink="http://www.w3.org/1999/xlink" x="0px" y="0px"
	 viewBox="0 0 32 32" style="enable-background:new 0 0 32 32;" xml:space="preserve" fill="#fff">
<path d="M16,2C8.3,2,2,8.3,2,16s6.3,14,14,14s14-6.3,14-14S23.7,2,16,2z M20.7,17.7l-4,4c-0.1,0.1-0.2,0.2-0.3,0.2
	C16.3,22,16.1,22,16,22s-0.3,0-0.4-0.1c-0.1-0.1-0.2-0.1-0.3-0.2l-4-4c-0.4-0.4-0.4-1,0-1.4s1-0.4,1.4,0l2.3,2.3V10c0-0.6,0.4-1,1-1
	s1,0.4,1,1v8.6l2.3-2.3c0.4-0.4,1-0.4,1.4,0S21.1,17.3,20.7,17.7z"/>
</svg>
