<svg xmlns="http://www.w3.org/2000/svg">
  <symbol id="lesson" viewBox="0 0 410.001 410">
    <path d="M371.861,25.211H38.144C17.11,25.211,0,42.32,0,63.351v283.3c0,21.028,17.11,38.139,38.144,38.139h333.718
      c21.027,0,38.139-17.109,38.139-38.139v-283.3C410,42.32,392.891,25.211,371.861,25.211z M371.861,346.649H171.849
      c-3.835-10.686-14.064-18.35-26.053-18.35h-63.06c-11.988,0-22.218,7.665-26.054,18.352H38.14l0.004-283.3l333.717-0.001
      l0.021,283.297C371.883,346.649,371.877,346.649,371.861,346.649z"/>
    <path d="M128.299,242.244c-0.488-4.445-4.488-7.651-8.936-7.16l-20.377,2.249l9.754-13.615
      c7.154-9.34,10.784-18.971,9.959-26.446c-1.478-13.404-12.681-21.286-27.877-19.61c-8.668,0.956-17.186,5.862-22.796,13.122
      c-2.696,3.494-2.101,8.508,1.347,11.269l1.368,1.099c1.698,1.359,3.863,1.986,6.028,1.721c2.162-0.262,4.127-1.377,5.455-3.099
      c2.596-3.375,6.747-5.829,10.568-6.251c7.549-0.832,7.914,2.477,8.052,3.721c0.196,1.788-1.368,7.066-6.399,13.622
      c-0.052,0.065-0.105,0.137-0.155,0.207l-20.878,29.062c-1.167,1.626-1.695,3.625-1.476,5.615l0.271,2.466
      c0.491,4.445,4.494,7.651,8.941,7.161l40.185-4.434c4.448-0.49,7.653-4.491,7.162-8.938L128.299,242.244z"/>
    <path d="M179.96,208.891c-0.489-4.443-4.493-7.65-8.935-7.161l-8.699,0.96l-0.959-8.697c-0.491-4.445-4.489-7.65-8.937-7.16
      l-1.761,0.195c-4.446,0.49-7.651,4.49-7.16,8.935l0.96,8.697l-8.698,0.959c-4.446,0.49-7.651,4.493-7.162,8.938l0.195,1.763
      c0.49,4.444,4.49,7.651,8.938,7.161l8.698-0.959l0.958,8.694c0.49,4.447,4.49,7.651,8.937,7.161l1.759-0.195
      c4.449-0.49,7.652-4.487,7.161-8.936l-0.96-8.695l8.7-0.96c4.442-0.489,7.65-4.491,7.161-8.936L179.96,208.891z"/>
    <path d="M240.715,229.842c-0.49-4.445-4.486-7.649-8.934-7.16l-20.379,2.25l9.758-13.617c7.154-9.338,10.783-18.971,9.96-26.443
      c-1.479-13.405-12.686-21.286-27.882-19.61c-8.662,0.956-17.186,5.862-22.795,13.122c-2.698,3.495-2.1,8.506,1.346,11.266
      l1.371,1.1c1.695,1.361,3.842,2.003,6.025,1.723c2.162-0.261,4.127-1.377,5.454-3.099c2.599-3.376,6.746-5.829,10.568-6.251
      c7.55-0.833,7.914,2.476,8.052,3.72c0.197,1.788-1.364,7.067-6.396,13.622c-0.054,0.066-0.104,0.138-0.155,0.207l-20.877,29.063
      c-1.168,1.627-1.692,3.625-1.473,5.614l0.272,2.465c0.49,4.445,4.486,7.652,8.935,7.162l40.188-4.434
      c4.446-0.491,7.647-4.492,7.157-8.938L240.715,229.842z"/>
    <path d="M293.795,209.326c-0.49-4.442-4.496-7.651-8.938-7.161l-35.254,3.889c-4.445,0.49-7.65,4.494-7.16,8.938l0.192,1.763
      c0.49,4.447,4.491,7.651,8.938,7.161l35.254-3.891c4.439-0.488,7.649-4.488,7.161-8.937L293.795,209.326z"/>
    <path d="M248.742,198.241l35.253-3.889c4.44-0.49,7.652-4.491,7.163-8.937l-0.196-1.764c-0.49-4.445-4.495-7.65-8.937-7.16
      l-35.255,3.889c-4.445,0.49-7.65,4.49-7.159,8.936l0.192,1.763C240.295,195.525,244.295,198.731,248.742,198.241z"/>
    <path d="M324.082,212.713c-5.703,0.629-9.832,5.779-9.201,11.479c0.629,5.702,5.779,9.829,11.482,9.198
      c5.703-0.629,9.83-5.776,9.201-11.479C334.936,216.21,329.783,212.084,324.082,212.713z"/>
    <path d="M317.823,152.773c-13.271,1.464-21.574,10.345-21.146,22.628c0.151,4.389,3.777,7.858,8.173,7.813l1.784-0.018
      c2.189-0.026,4.271-0.93,5.776-2.509c1.512-1.586,2.312-3.71,2.232-5.895c-0.062-1.592-0.14-3.576,5.063-4.15
      c5.52-0.608,5.746,1.442,5.896,2.801c0.383,3.471-0.572,4.774-3.653,8.383c-3.548,4.144-8.9,10.41-7.658,21.676
      c0.489,4.447,4.491,7.65,8.938,7.161l1.76-0.194c4.446-0.49,7.65-4.49,7.161-8.937c-0.391-3.534,0.573-4.852,3.685-8.478
      c3.53-4.12,8.872-10.344,7.645-21.494C342.071,158.786,331.761,151.236,317.823,152.773z"/>
  </symbol>

  <symbol id="homework" viewBox="0 0 512.001 512.001">
    <path d="M242.178,285.008v154.033c0,8.04,6.518,14.556,14.556,14.556s14.557-6.516,14.557-14.556V285.008H242.178z"/>
    <path d="M95.666,285.008v175.589c0,15.323,12.422,27.744,27.744,27.744c15.322,0,27.744-12.422,27.744-27.744V285.008H95.666z"/>
    <path d="M163.133,285.008v175.589h0.001c0,15.323,12.422,27.744,27.744,27.744s27.744-12.422,27.744-27.744V285.008H163.133z"/>
    <path d="M157.139,2.356c-26.464,0-47.917,21.454-47.917,47.918c0,8.432,2.185,16.35,6.009,23.233
      c11.681-7.181,26.517-8.864,40.155-3.224c10.852,4.487,18.962,12.794,23.44,22.716c15.562-7.916,26.23-24.069,26.23-42.725
      C205.056,23.809,183.603,2.356,157.139,2.356z"/>
    <path d="M497.98,235.854h-13.606c3.488-1.396,5.954-4.8,5.954-8.785v-37.217c0-5.228-4.239-9.466-9.466-9.466H321.378
      c-5.228,0-9.466,4.239-9.466,9.466c0,13.528,0,24.197,0,37.218c0,3.986,2.466,7.389,5.954,8.785c-13.42,0-4.633,0-36.043,0
      c10.367-4.616,15.797-16.004,12.984-26.893c-13.995-54.197-8.842-34.239-22.875-88.587c-6.531-25.291-28.21-43.473-53.809-45.87
      c-6.485,16.263-19.279,29.353-35.358,36.197c0.076,6.107-1.175,12.153-3.366,17.452l-22.687,54.867
      c7.983-7.782,18.885-12.582,30.913-12.582h30.494v-37.355c0-2.313,1.72-4.266,4.014-4.557c2.295-0.291,4.448,1.168,5.027,3.409
      c2.848,11.03,12.364,47.885,15.412,59.687h-54.947c-12.769,0-23.12,10.351-23.12,23.12c0,9.421,5.643,17.511,13.726,21.113
      h-29.564c-3.315-6.105-5.226-13.079-5.329-20.491c-7.494,18.125-7.161,17.529-8.765,20.491h-29.528
      c5.268-2.344,9.638-6.624,11.976-12.279l42.803-103.517c4.879-11.8-0.731-25.322-12.531-30.201
      c-11.799-4.879-25.322,0.731-30.201,12.531l-13.831,33.45l-0.043-0.213l0.062,0.069l-1.262-49.669
      c0.02-0.029,0.042-0.057,0.061-0.087c-2.339-3.598-4.332-7.437-5.939-11.472c-12.31,1.221-23.619,7.229-31.547,16.924
      c-8.923,10.911-12.434,25.09-9.637,38.904c2.214,10.928,15.868,78.326,18.037,89.035c1.513,7.467,6.548,13.536,13.236,16.523
      c-17.853,0-52.731,0-72.214,0C6.276,235.855,0,242.129,0,249.869v0.002c0,7.747,6.28,14.025,14.025,14.025h13.822v223.999
      c0,12.012,9.738,21.75,21.75,21.75H49.6c11.758,0,21.285-9.529,21.285-21.287c0-58.407,0-217.319,0-224.461
      c12.767,0,358.149,0,368.965,0v224.23c0,11.884,9.634,21.518,21.518,21.518s21.518-9.634,21.518-21.518V263.895h15.092
      c7.746,0,14.023-6.277,14.023-14.021S505.724,235.854,497.98,235.854z"/>
    <path d="M480.862,108.749H321.378c-5.228,0-9.466,4.239-9.466,9.466v37.217c0,5.229,4.239,9.466,9.466,9.466h159.484
      c5.228,0,9.466-4.239,9.466-9.466v-37.217C490.328,112.987,486.09,108.749,480.862,108.749z"/>
    <path d="M480.862,33.43H321.378c-5.228,0-9.466,4.239-9.466,9.466v37.217c0,5.228,4.239,9.466,9.466,9.466h159.484
      c5.228,0,9.466-4.239,9.466-9.466V42.896C490.328,37.669,486.09,33.43,480.862,33.43z"/>
  </symbol>
</svg>