<svg xmlns="http://www.w3.org/2000/svg">
  <symbol id="footerLogo" viewBox="0 0 197.36 32">
    <path fill="#fff" d="M48.07,28.86c-.42,0-.77-.14-1.05-.42-.26-.28-.39-.62-.39-1.01V5.76c0-.4,.13-.72,.39-.98,.28-.28,.62-.42,1.01-.42h12.28c.4,0,.74,.13,1.01,.39s.42,.58,.42,.98c0,.37-.14,.69-.42,.95s-.62,.38-1.01,.38h-11.03l.21-.28V15.35l-.18-.39h9.42c.4,0,.74,.14,1.01,.42,.28,.26,.42,.58,.42,.98,0,.35-.14,.67-.42,.95-.28,.26-.62,.38-1.01,.38h-9.49l.25-.31v10.05c0,.4-.14,.73-.42,1.01s-.62,.42-1.01,.42Zm18.96,0c-.4,0-.74-.14-1.01-.42-.26-.28-.39-.62-.39-1.01V12.16c0-.4,.13-.72,.39-.98,.28-.28,.62-.42,1.01-.42,.42,0,.76,.14,1.01,.42,.26,.26,.39,.58,.39,.98v4.62l-.42-.73c.14-.72,.39-1.42,.74-2.1,.37-.7,.84-1.32,1.4-1.86,.56-.56,1.2-.99,1.93-1.3,.72-.33,1.52-.49,2.38-.49,.51,0,.98,.13,1.4,.39,.44,.23,.67,.57,.67,1.02,0,.49-.13,.85-.39,1.09-.26,.23-.55,.35-.88,.35-.3,0-.6-.06-.88-.18-.28-.14-.63-.21-1.05-.21-.58,0-1.17,.16-1.75,.49-.56,.3-1.08,.75-1.57,1.33-.47,.58-.85,1.25-1.15,2-.28,.72-.42,1.5-.42,2.34v8.51c0,.4-.14,.73-.42,1.01-.26,.28-.58,.42-.98,.42Zm20.23,.35c-1.87,0-3.5-.4-4.9-1.19s-2.5-1.88-3.29-3.25c-.77-1.4-1.15-3.01-1.15-4.83,0-2.03,.4-3.76,1.19-5.18,.82-1.45,1.87-2.54,3.15-3.29,1.31-.77,2.68-1.15,4.13-1.15,1.07,0,2.11,.2,3.11,.6,1,.4,1.89,.98,2.66,1.75,.77,.75,1.39,1.66,1.85,2.73,.47,1.05,.71,2.23,.74,3.53,0,.37-.14,.69-.42,.94-.28,.26-.61,.39-.98,.39h-13.82l-.63-2.41h13.47l-.56,.49v-.77c-.09-.96-.42-1.77-.98-2.45-.54-.7-1.2-1.24-2-1.61-.77-.37-1.59-.56-2.45-.56-.7,0-1.4,.13-2.1,.39-.68,.23-1.3,.63-1.86,1.19-.54,.54-.98,1.24-1.33,2.1-.33,.86-.49,1.9-.49,3.11,0,1.35,.27,2.54,.81,3.57,.56,1.03,1.33,1.84,2.31,2.45,.98,.58,2.12,.88,3.43,.88,.82,0,1.53-.1,2.14-.32,.61-.21,1.13-.47,1.57-.77,.44-.33,.82-.65,1.12-.98,.3-.21,.6-.32,.88-.32,.35,0,.63,.12,.84,.35,.23,.23,.35,.51,.35,.84,0,.4-.19,.75-.56,1.05-.65,.72-1.54,1.36-2.66,1.92-1.12,.54-2.31,.81-3.57,.81Zm20.06,0c-1.87,0-3.5-.4-4.9-1.19-1.4-.79-2.5-1.88-3.29-3.25-.77-1.4-1.15-3.01-1.15-4.83,0-2.03,.4-3.76,1.19-5.18,.82-1.45,1.87-2.54,3.15-3.29,1.31-.77,2.68-1.15,4.13-1.15,1.07,0,2.11,.2,3.12,.6,1,.4,1.89,.98,2.66,1.75,.77,.75,1.39,1.66,1.86,2.73,.47,1.05,.71,2.23,.74,3.53,0,.37-.14,.69-.42,.94-.28,.26-.61,.39-.98,.39h-13.83l-.63-2.41h13.48l-.56,.49v-.77c-.09-.96-.42-1.77-.98-2.45-.54-.7-1.2-1.24-1.99-1.61-.77-.37-1.59-.56-2.45-.56-.7,0-1.4,.13-2.1,.39-.68,.23-1.29,.63-1.85,1.19-.54,.54-.98,1.24-1.33,2.1-.33,.86-.49,1.9-.49,3.11,0,1.35,.27,2.54,.81,3.57,.56,1.03,1.33,1.84,2.31,2.45,.98,.58,2.12,.88,3.43,.88,.82,0,1.53-.1,2.14-.32,.61-.21,1.13-.47,1.57-.77,.44-.33,.82-.65,1.12-.98,.3-.21,.59-.32,.88-.32,.35,0,.63,.12,.84,.35,.23,.23,.35,.51,.35,.84,0,.4-.19,.75-.56,1.05-.65,.72-1.54,1.36-2.66,1.92-1.12,.54-2.31,.81-3.57,.81Zm20.45-18.73c1.54,0,2.75,.34,3.64,1.02,.91,.65,1.55,1.54,1.93,2.66,.4,1.1,.6,2.32,.6,3.68v9.59c0,.4-.14,.73-.42,1.01-.26,.28-.58,.42-.98,.42s-.74-.14-1.01-.42c-.26-.28-.38-.62-.38-1.01v-9.59c0-.89-.13-1.68-.39-2.38-.26-.72-.69-1.29-1.29-1.71-.58-.44-1.39-.66-2.41-.66-.96,0-1.83,.22-2.62,.66-.79,.42-1.42,.99-1.89,1.71-.47,.7-.7,1.49-.7,2.38v9.59c0,.4-.14,.73-.42,1.01-.26,.28-.58,.42-.98,.42s-.74-.14-1.01-.42c-.26-.28-.38-.62-.38-1.01V4.36c0-.4,.13-.72,.38-.98,.28-.28,.62-.42,1.01-.42,.42,0,.76,.14,1.01,.42,.26,.26,.39,.58,.39,.98V14.82l-.7,.77c.12-.61,.37-1.21,.77-1.82,.4-.63,.9-1.19,1.51-1.68,.61-.49,1.28-.88,2.03-1.15,.75-.3,1.53-.45,2.35-.45Zm26.26,.1c.4,0,.72,.14,.98,.42,.28,.26,.42,.58,.42,.98v15.44c0,.4-.14,.73-.42,1.01-.26,.28-.58,.42-.98,.42-.42,0-.76-.14-1.01-.42-.26-.28-.38-.62-.38-1.01v-3.33l.66-.07c0,.51-.18,1.07-.52,1.68-.35,.61-.83,1.18-1.43,1.72-.61,.51-1.33,.94-2.17,1.3-.82,.33-1.7,.49-2.66,.49-1.59,0-3.01-.41-4.27-1.23-1.26-.84-2.26-1.97-3.01-3.4-.72-1.42-1.09-3.05-1.09-4.86s.36-3.47,1.09-4.86c.75-1.42,1.75-2.53,3.01-3.32,1.26-.82,2.66-1.23,4.2-1.23,1,0,1.94,.16,2.8,.49,.86,.33,1.61,.77,2.24,1.33,.65,.56,1.15,1.18,1.5,1.85,.37,.68,.56,1.35,.56,2.03l-.91-.21v-3.81c0-.4,.13-.72,.38-.98,.26-.28,.6-.42,1.01-.42Zm-7.21,16.03c1.17,0,2.19-.3,3.08-.91,.91-.61,1.61-1.42,2.1-2.45,.51-1.05,.77-2.23,.77-3.53s-.26-2.44-.77-3.47c-.49-1.05-1.19-1.87-2.1-2.45-.89-.61-1.91-.91-3.08-.91s-2.17,.29-3.08,.88c-.89,.58-1.59,1.39-2.1,2.41-.51,1.03-.77,2.2-.77,3.53s.25,2.49,.74,3.53c.51,1.03,1.21,1.84,2.1,2.45,.91,.61,1.95,.91,3.12,.91Zm22.79-16.31c1.59,0,2.84,.33,3.74,.98,.91,.65,1.55,1.53,1.93,2.62,.4,1.1,.6,2.32,.6,3.67v9.84c0,.4-.14,.73-.42,1.01-.26,.28-.58,.42-.98,.42s-.74-.14-1.01-.42c-.26-.28-.39-.62-.39-1.01v-9.77c0-.89-.14-1.68-.42-2.38-.26-.72-.7-1.3-1.33-1.72-.61-.44-1.45-.66-2.52-.66-.98,0-1.88,.22-2.7,.66-.82,.42-1.47,.99-1.96,1.72-.49,.7-.74,1.49-.74,2.38v9.77c0,.4-.14,.73-.42,1.01-.26,.28-.58,.42-.98,.42s-.74-.14-1.01-.42c-.26-.28-.38-.62-.38-1.01V12.16c0-.4,.13-.72,.38-.98,.28-.28,.62-.42,1.01-.42,.42,0,.76,.14,1.01,.42,.26,.26,.39,.58,.39,.98v2.49l-.7,.77c.12-.61,.39-1.21,.81-1.82,.42-.63,.94-1.19,1.57-1.68,.63-.49,1.33-.88,2.1-1.16,.77-.3,1.57-.45,2.41-.45Zm26.35-7.35c.4,0,.72,.14,.98,.42,.28,.26,.42,.58,.42,.98V27.42c0,.4-.14,.73-.42,1.01-.26,.28-.58,.42-.98,.42-.42,0-.76-.14-1.01-.42-.26-.28-.39-.62-.39-1.01v-3.33l.67-.24c0,.56-.18,1.15-.52,1.78-.35,.61-.83,1.18-1.44,1.72-.61,.54-1.33,.98-2.17,1.33-.82,.35-1.7,.52-2.66,.52-1.56,0-2.99-.41-4.27-1.23-1.26-.82-2.26-1.94-3.01-3.36-.72-1.42-1.08-3.05-1.08-4.86s.36-3.48,1.08-4.9c.75-1.42,1.75-2.53,3.01-3.32,1.26-.82,2.66-1.23,4.2-1.23,.98,0,1.9,.16,2.76,.49,.86,.33,1.61,.77,2.24,1.33,.65,.56,1.17,1.18,1.54,1.85,.37,.68,.56,1.35,.56,2.03l-.91-.21V4.36c0-.4,.13-.72,.39-.98,.26-.28,.6-.42,1.01-.42Zm-7.21,23.66c1.17,0,2.19-.29,3.08-.88,.91-.61,1.61-1.42,2.1-2.45,.51-1.05,.77-2.23,.77-3.53s-.26-2.51-.77-3.53c-.49-1.03-1.19-1.83-2.1-2.41-.89-.61-1.91-.91-3.08-.91s-2.17,.3-3.08,.91c-.89,.58-1.59,1.39-2.1,2.41-.51,1.03-.77,2.2-.77,3.53s.26,2.45,.77,3.5c.51,1.03,1.21,1.84,2.1,2.45,.91,.61,1.94,.91,3.08,.91Z"/>
    <path fill="#3db370" d="M31.5,8.79c0,3.06-1.64,5.77-4.19,7.21,2.55,1.44,4.19,4.15,4.19,7.21,0,4.57-3.7,8.29-8.26,8.29-3.06,0-5.81-1.7-7.24-4.28-1.42,2.58-4.17,4.28-7.23,4.28-4.56,0-8.27-3.72-8.27-8.29,0-3.06,1.65-5.77,4.2-7.21C2.15,14.56,.5,11.85,.5,8.79,.5,4.22,4.21,.5,8.77,.5c3.06,0,5.81,1.7,7.23,4.28,1.43-2.58,4.18-4.28,7.24-4.28,4.56,0,8.26,3.72,8.26,8.29Zm-6.78,6.36c2.96-.69,5.04-3.31,5.04-6.36,0-3.61-2.93-6.54-6.52-6.54-3.07,0-5.75,2.18-6.38,5.19-.09,.4-.44,.69-.86,.69-.05,0-.09,0-.14-.01-.35-.06-.64-.32-.71-.68-.63-3.01-3.31-5.19-6.38-5.19-3.59,0-6.52,2.93-6.52,6.54,0,3.05,2.07,5.67,5.04,6.36,.4,.09,.68,.44,.68,.85s-.28,.76-.68,.85c-2.97,.69-5.04,3.31-5.04,6.36,0,3.61,2.93,6.54,6.52,6.54,3.07,0,5.75-2.18,6.38-5.19,.08-.4,.44-.69,.85-.69s.77,.29,.86,.69c.63,3.01,3.31,5.19,6.38,5.19,3.59,0,6.52-2.93,6.52-6.54,0-3.05-2.08-5.67-5.04-6.36-.4-.09-.68-.44-.68-.85s.28-.76,.68-.85Z"/>
    <path fill="none" stroke="#3db370" d="M4.7,16c-2.55,1.44-4.2,4.15-4.2,7.21,0,4.57,3.71,8.29,8.27,8.29,3.06,0,5.81-1.7,7.23-4.28,1.43,2.58,4.18,4.28,7.24,4.28,4.56,0,8.26-3.72,8.26-8.29,0-3.06-1.64-5.77-4.19-7.21,2.55-1.44,4.19-4.15,4.19-7.21,0-4.57-3.7-8.29-8.26-8.29-3.06,0-5.81,1.7-7.24,4.28C14.58,2.2,11.83,.5,8.77,.5,4.21,.5,.5,4.22,.5,8.79c0,3.06,1.65,5.77,4.2,7.21Z"/>
    <path fill="none" stroke="#3db370" d="M8.77,2.25c-3.59,0-6.52,2.93-6.52,6.54,0,3.05,2.07,5.67,5.04,6.36,.4,.09,.68,.44,.68,.85s-.28,.76-.68,.85c-2.97,.69-5.04,3.31-5.04,6.36,0,3.61,2.93,6.54,6.52,6.54,3.07,0,5.75-2.18,6.38-5.19,.08-.4,.44-.69,.85-.69s.77,.29,.86,.69c.63,3.01,3.31,5.19,6.38,5.19,3.59,0,6.52-2.93,6.52-6.54,0-3.05-2.08-5.67-5.04-6.36-.4-.09-.68-.44-.68-.85s.28-.76,.68-.85c2.96-.69,5.04-3.31,5.04-6.36,0-3.61-2.93-6.54-6.52-6.54-3.07,0-5.75,2.18-6.38,5.19-.09,.4-.44,.69-.86,.69-.05,0-.09,0-.14-.01-.35-.06-.64-.32-.71-.68-.63-3.01-3.31-5.19-6.38-5.19Z"/>
  </symbol>

  <symbol id="instagram" viewBox="0 0 38 38">
    <rect width="38" height="38" rx="5" fill="#EFEEF3"/>
    <path d="M19.0078 13.8739C16.1685 13.8739 13.8783 16.1641 13.8783 19.0033C13.8783 21.8426 16.1685 24.1328 19.0078 24.1328C21.8471 24.1328 24.1373 21.8426 24.1373 19.0033C24.1373 16.1641 21.8471 13.8739 19.0078 13.8739ZM19.0078 22.3382C17.173 22.3382 15.673 20.8426 15.673 19.0033C15.673 17.1641 17.1685 15.6685 19.0078 15.6685C20.8471 15.6685 22.3426 17.1641 22.3426 19.0033C22.3426 20.8426 20.8426 22.3382 19.0078 22.3382ZM25.5435 13.6641C25.5435 14.3292 25.0078 14.8605 24.3471 14.8605C23.6819 14.8605 23.1506 14.3248 23.1506 13.6641C23.1506 13.0033 23.6864 12.4676 24.3471 12.4676C25.0078 12.4676 25.5435 13.0033 25.5435 13.6641ZM28.9408 14.8783C28.8649 13.2757 28.4989 11.856 27.3247 10.6864C26.1551 9.51674 24.7355 9.15067 23.1328 9.07031C21.481 8.97656 16.5301 8.97656 14.8783 9.07031C13.2801 9.14621 11.8605 9.51228 10.6864 10.6819C9.51228 11.8516 9.15067 13.2712 9.07031 14.8739C8.97656 16.5257 8.97656 21.4766 9.07031 23.1283C9.14621 24.731 9.51228 26.1507 10.6864 27.3203C11.8605 28.49 13.2757 28.856 14.8783 28.9364C16.5301 29.0301 21.481 29.0301 23.1328 28.9364C24.7355 28.8605 26.1551 28.4944 27.3247 27.3203C28.4944 26.1507 28.8605 24.731 28.9408 23.1283C29.0346 21.4766 29.0346 16.5301 28.9408 14.8783ZM26.8069 24.9007C26.4587 25.7757 25.7846 26.4498 24.9051 26.8025C23.5881 27.3248 20.4632 27.2042 19.0078 27.2042C17.5524 27.2042 14.423 27.3203 13.1105 26.8025C12.2355 26.4542 11.5614 25.7801 11.2087 24.9007C10.6864 23.5837 10.8069 20.4587 10.8069 19.0033C10.8069 17.548 10.6908 14.4185 11.2087 13.106C11.5569 12.231 12.231 11.5569 13.1105 11.2042C14.4274 10.6819 17.5524 10.8025 19.0078 10.8025C20.4632 10.8025 23.5926 10.6864 24.9051 11.2042C25.7801 11.5525 26.4542 12.2266 26.8069 13.106C27.3292 14.423 27.2087 17.548 27.2087 19.0033C27.2087 20.4587 27.3292 23.5882 26.8069 24.9007Z"/>
  </symbol>

  <symbol id="facebook" viewBox="0 0 38 38">
    <rect width="38" height="38" rx="5" fill="#EFEEF3"/>
    <path d="M23.3447 20.5025L23.8632 17.1235H20.621V14.9307C20.621 14.0063 21.0739 13.1052 22.526 13.1052H24V10.2283C24 10.2283 22.6624 10 21.3835 10C18.7134 10 16.9681 11.6184 16.9681 14.5482V17.1235H14V20.5025H16.9681V28.6711H20.621V20.5025H23.3447Z"/>
  </symbol>

  <symbol id="github" viewBox="0 0 38 38">
    <rect width="38" height="38" rx="5" fill="#EFEEF3"/>
    <path d="M15.6895 24.7016C15.6895 24.7823 15.5968 24.8468 15.4798 24.8468C15.3468 24.8589 15.254 24.7944 15.254 24.7016C15.254 24.621 15.3468 24.5565 15.4637 24.5565C15.5847 24.5444 15.6895 24.6089 15.6895 24.7016ZM14.4355 24.5202C14.4073 24.6008 14.4879 24.6935 14.6089 24.7177C14.7137 24.7581 14.8347 24.7177 14.8589 24.6371C14.8831 24.5565 14.8065 24.4637 14.6855 24.4274C14.5806 24.3992 14.4637 24.4395 14.4355 24.5202ZM16.2177 24.4516C16.1008 24.4798 16.0202 24.5565 16.0323 24.6492C16.0444 24.7298 16.1492 24.7823 16.2702 24.754C16.3871 24.7258 16.4677 24.6492 16.4556 24.5685C16.4435 24.4919 16.3347 24.4395 16.2177 24.4516ZM18.871 9C13.2782 9 9 13.246 9 18.8387C9 23.3105 11.8145 27.1371 15.8347 28.4839C16.3508 28.5766 16.5323 28.2581 16.5323 27.996C16.5323 27.746 16.5202 26.3669 16.5202 25.5202C16.5202 25.5202 13.6976 26.125 13.1048 24.3185C13.1048 24.3185 12.6452 23.1452 11.9839 22.8427C11.9839 22.8427 11.0605 22.2097 12.0484 22.2218C12.0484 22.2218 13.0524 22.3024 13.6048 23.2621C14.4879 24.8185 15.9677 24.371 16.5444 24.1048C16.6371 23.4597 16.8992 23.0121 17.1895 22.746C14.9355 22.496 12.6613 22.1694 12.6613 18.2903C12.6613 17.1815 12.9677 16.625 13.6129 15.9153C13.5081 15.6532 13.1653 14.5726 13.7177 13.1774C14.5605 12.9153 16.5 14.2661 16.5 14.2661C17.3065 14.0403 18.1734 13.9234 19.0323 13.9234C19.8911 13.9234 20.7581 14.0403 21.5645 14.2661C21.5645 14.2661 23.504 12.9113 24.3468 13.1774C24.8992 14.5766 24.5565 15.6532 24.4516 15.9153C25.0968 16.629 25.4919 17.1855 25.4919 18.2903C25.4919 22.1815 23.1169 22.4919 20.8629 22.746C21.2339 23.0645 21.5484 23.6694 21.5484 24.6169C21.5484 25.9758 21.5363 27.6573 21.5363 27.9879C21.5363 28.25 21.7218 28.5685 22.2339 28.4758C26.2661 27.1371 29 23.3105 29 18.8387C29 13.246 24.4637 9 18.871 9ZM12.9194 22.9073C12.8669 22.9476 12.879 23.0403 12.9476 23.1169C13.0121 23.1815 13.1048 23.2097 13.1573 23.1573C13.2097 23.1169 13.1976 23.0242 13.129 22.9476C13.0645 22.8831 12.9718 22.8548 12.9194 22.9073ZM12.4839 22.5806C12.4556 22.6331 12.496 22.6976 12.5766 22.7379C12.6411 22.7782 12.7218 22.7661 12.75 22.7097C12.7782 22.6573 12.7379 22.5927 12.6573 22.5524C12.5766 22.5282 12.5121 22.5403 12.4839 22.5806ZM13.7903 24.0161C13.7258 24.0685 13.75 24.1895 13.8427 24.2661C13.9355 24.3589 14.0524 24.371 14.1048 24.3065C14.1573 24.254 14.1331 24.1331 14.0524 24.0565C13.9637 23.9637 13.8427 23.9516 13.7903 24.0161ZM13.3306 23.4234C13.2661 23.4637 13.2661 23.5685 13.3306 23.6613C13.3952 23.754 13.504 23.7944 13.5565 23.754C13.621 23.7016 13.621 23.5968 13.5565 23.504C13.5 23.4113 13.3952 23.371 13.3306 23.4234Z"/>
  </symbol>

  <symbol id="dribbble" viewBox="0 0 38 38">
    <rect width="38" height="38" rx="5" fill="#EFEEF3"/>
    <path d="M18.6875 9C13.3458 9 9 13.3458 9 18.6875C9 24.0292 13.3458 28.375 18.6875 28.375C24.0292 28.375 28.375 24.0292 28.375 18.6875C28.375 13.3458 24.0292 9 18.6875 9ZM25.0926 13.4674C26.245 14.8755 26.9429 16.6689 26.9611 18.6219C26.6883 18.5642 23.9526 18.0093 21.1993 18.3556C20.9746 17.8071 20.7626 17.3246 20.4721 16.73C23.5315 15.4809 24.9181 13.7034 25.0926 13.4674ZM24.1727 12.5105C24.0239 12.7225 22.7783 14.3967 19.8359 15.4996C18.48 13.0083 16.9771 10.9618 16.7484 10.6555C19.3725 10.023 22.1377 10.7051 24.1727 12.5105ZM15.1696 11.2117C15.3877 11.5109 16.8664 13.56 18.2374 15.9972C14.3668 17.0251 10.9577 17.0103 10.5877 17.0054C11.1242 14.4377 12.8546 12.3036 15.1696 11.2117ZM10.4129 18.7001C10.4129 18.6155 10.4146 18.5313 10.4171 18.4473C10.7791 18.4547 14.789 18.5064 18.9213 17.2697C19.1581 17.7333 19.3844 18.2039 19.5921 18.6739C16.6 19.5167 13.8814 21.9367 12.5401 24.2328C11.2185 22.7658 10.4129 20.8254 10.4129 18.7001ZM13.6085 25.228C14.4728 23.4611 16.8186 21.1802 20.1545 20.0422C21.3162 23.0611 21.7967 25.5911 21.9197 26.3171C19.2591 27.4504 16.0598 27.1395 13.6085 25.228ZM23.3108 25.5596C23.226 25.0562 22.7856 22.6339 21.7033 19.6598C24.2963 19.2448 26.5744 19.9242 26.8575 20.0136C26.4887 22.3159 25.1671 24.3043 23.3108 25.5596Z"/>
  </symbol>

  <symbol id="twitter" viewBox="0 0 38 38">
    <rect width="38" height="38" rx="5" fill="#EFEEF3"/>
    <path d="M26.9441 15.0482C26.9568 15.2259 26.9568 15.4036 26.9568 15.5812C26.9568 21 22.8325 27.2436 15.2944 27.2436C12.9721 27.2436 10.8147 26.571 9 25.4036C9.32996 25.4416 9.64719 25.4543 9.98984 25.4543C11.9061 25.4543 13.67 24.8071 15.0787 23.703C13.2766 23.665 11.7665 22.4848 11.2462 20.8604C11.5 20.8984 11.7538 20.9238 12.0203 20.9238C12.3883 20.9238 12.7564 20.873 13.099 20.7843C11.2208 20.4035 9.81215 18.7538 9.81215 16.7614V16.7107C10.3578 17.0152 10.9924 17.2056 11.6649 17.2309C10.5609 16.4949 9.83754 15.2386 9.83754 13.8172C9.83754 13.0558 10.0405 12.3579 10.3959 11.7487C12.4137 14.236 15.4467 15.8604 18.8477 16.038C18.7842 15.7335 18.7461 15.4163 18.7461 15.099C18.7461 12.8401 20.5736 11 22.8451 11C24.0253 11 25.0913 11.4949 25.84 12.2944C26.7664 12.1168 27.6547 11.7741 28.4416 11.3046C28.137 12.2564 27.4898 13.0559 26.6395 13.5634C27.4644 13.4746 28.2639 13.2462 28.9999 12.9289C28.4416 13.7411 27.7436 14.4644 26.9441 15.0482Z"/>
  </symbol>
</svg>
